<svg xmlns="http://www.w3.org/2000/svg" xmlns:xlink="http://www.w3.org/1999/xlink" width="500" zoomAndPan="magnify" viewBox="0 0 375 374.999991" height="500" preserveAspectRatio="xMidYMid meet" version="1.0"><path fill="#424143" d="M 25.121094 93.75 L 187.503906 0 L 349.878906 93.75 L 349.878906 281.25 L 187.503906 375 L 25.121094 281.25 Z M 25.121094 93.75 " fill-opacity="1" fill-rule="nonzero"/><path fill="#ffffff" d="M 332.695312 187.496094 C 332.695312 267.679688 267.691406 332.691406 187.496094 332.691406 C 107.316406 332.691406 42.308594 267.679688 42.308594 187.496094 C 42.308594 107.316406 107.316406 42.304688 187.496094 42.304688 C 267.691406 42.304688 332.695312 107.316406 332.695312 187.496094 Z M 332.695312 187.496094 " fill-opacity="1" fill-rule="nonzero"/><path fill="#424143" d="M 187.757812 141.339844 C 184.800781 141.339844 181.902344 141.648438 179.097656 142.175781 C 184.328125 146.996094 187.628906 153.878906 187.628906 161.550781 C 187.628906 176.109375 175.824219 187.910156 161.265625 187.910156 C 153.683594 187.910156 146.839844 184.683594 142.03125 179.550781 C 141.554688 182.242188 141.253906 185.003906 141.253906 187.84375 C 141.253906 213.519531 162.074219 234.34375 187.757812 234.34375 C 213.449219 234.34375 234.257812 213.519531 234.257812 187.84375 C 234.257812 162.160156 213.449219 141.339844 187.757812 141.339844 Z M 187.757812 141.339844 " fill-opacity="1" fill-rule="nonzero"/><path fill="#7b61ff" d="M 231.910156 75.535156 C 217.429688 69.367188 204.257812 67.082031 187.527344 67.082031 C 165.320312 67.082031 144.535156 73.117188 126.671875 83.601562 C 111.761719 121.949219 113.390625 151.285156 116.792969 171.925781 C 117.007812 170.847656 132.546875 89.945312 231.910156 75.535156 Z M 231.910156 75.535156 " fill-opacity="1" fill-rule="nonzero"/><path fill="#7b61ff" d="M 67.894531 203.222656 C 73.957031 241.351562 92.890625 268 119.777344 286.980469 C 148.960938 284.292969 199.046875 260.160156 200.699219 258.851562 C 189.5 261.742188 102.550781 261.039062 67.894531 203.222656 Z M 67.894531 203.222656 " fill-opacity="1" fill-rule="nonzero"/><path fill="#4a2fb0" d="M 138.632812 297.539062 C 153.570312 304.199219 170.113281 307.914062 187.527344 307.914062 C 206.921875 307.914062 222.933594 304.449219 239.167969 296.300781 C 252.542969 264.789062 256.949219 235.980469 257.894531 206.640625 C 257.257812 208.75 245.816406 267.40625 138.632812 297.539062 Z M 138.632812 297.539062 " fill-opacity="1" fill-rule="nonzero"/><path fill="#7b61ff" d="M 239.167969 136.566406 C 257.894531 158.386719 288.40625 194.246094 257.503906 285.46875 C 287.707031 264.46875 306.492188 230.96875 307.839844 191.726562 C 284.1875 149.949219 243.65625 138.316406 239.167969 136.566406 Z M 239.167969 136.566406 " fill-opacity="1" fill-rule="nonzero"/><path fill="#4a2fb0" d="M 248.746094 83.808594 C 208.332031 88.90625 183.144531 102.503906 168.621094 113.816406 C 167.058594 115.039062 163.671875 118.257812 162.257812 119.460938 C 203.457031 106.660156 275.226562 121.746094 306.941406 171.925781 C 303.140625 138.476562 280.769531 102.761719 248.746094 83.808594 Z M 248.746094 83.808594 " fill-opacity="1" fill-rule="nonzero"/><path fill="#4a2fb0" d="M 110.015625 95.324219 C 83.726562 118.324219 67.75 147.625 67.152344 185.597656 C 91.460938 217.300781 115.105469 229.640625 135.183594 237.765625 C 125.402344 228.636719 84.730469 174.789062 110.015625 95.324219 Z M 110.015625 95.324219 " fill-opacity="1" fill-rule="nonzero"/></svg>